<svg xmlns="http://www.w3.org/2000/svg" viewBox="0 0 106 106"><defs><style>.cls-1{fill:#fff;}.cls-2{fill:#ffc868;}.cls-3{fill:#485761;}.cls-4{opacity:0.25;}.cls-5{fill:#171c1f;}.cls-6{opacity:0.1;}</style></defs><title>user</title><g id="User"><g id="White_1" data-name="White 1"><circle class="cls-1" cx="53" cy="53" r="51"/></g><g id="Yellow"><circle class="cls-2" cx="53" cy="53" r="42"/></g><g id="Orange"><path class="cls-3" d="M53,62A26,26,0,0,0,27.1,86a42,42,0,0,0,51.8,0A26,26,0,0,0,53,62ZM69,46A16,16,0,1,0,53,62,16,16,0,0,0,69,46Z"/></g><g id="White_2" data-name="White 2"><path class="cls-1" d="M62.07,61.53a18,18,0,1,0-18.13,0,28,28,0,0,0-18.71,23,42.15,42.15,0,0,0,3.8,3,24,24,0,0,1,47.95,0,42.16,42.16,0,0,0,3.8-3A28,28,0,0,0,62.07,61.53ZM53,60A14,14,0,1,1,67,46,14,14,0,0,1,53,60Z"/></g><g id="Inner_Lines_2" data-name="Inner Lines 2" class="cls-4"><path d="M53,60A14,14,0,1,0,39,46,14,14,0,0,0,53,60Zm0-26A12,12,0,1,1,41,46,12,12,0,0,1,53,34ZM77,87.48a24,24,0,0,0-47.95,0c.66.46,1.33.9,2,1.33,0-.27,0-.53,0-.8a22,22,0,0,1,44,0c0,.27,0,.53,0,.8C75.65,88.38,76.31,87.94,77,87.48Z"/></g><g id="Inner_Lines_1" data-name="Inner Lines 1"><path class="cls-5" d="M53,10A43,43,0,1,0,96,53,43,43,0,0,0,53,10Zm0,84A40.85,40.85,0,0,1,25.43,83.35,28,28,0,0,1,43.93,61.53l0,0h0l-.2-.12a18,18,0,1,1,18.55,0l-.2.12h0l0,0A28,28,0,0,1,80.57,83.35,40.85,40.85,0,0,1,53,94ZM82.3,81.66A30,30,0,0,0,66.13,61.05a20,20,0,1,0-26.26,0A30,30,0,0,0,23.7,81.66a41,41,0,1,1,58.61,0Z"/></g><g id="Shadows" class="cls-6"><path d="M53,16A41,41,0,0,1,93.95,55c0-.66.05-1.33.05-2a41,41,0,0,0-82,0c0,.67,0,1.34.05,2A41,41,0,0,1,53,16Zm49,36A49,49,0,0,1,4,52c0,.33,0,.66,0,1a49,49,0,1,0,98,0C102,52.66,102,52.33,102,52Z"/></g><g id="Outline"><path class="cls-5" d="M53,0a53,53,0,1,0,53,53A53,53,0,0,0,53,0Zm0,102a49,49,0,1,1,49-49A49,49,0,0,1,53,102Z"/></g></g></svg>